<svg height="512" viewBox="0 0 128 128" width="512" xmlns="http://www.w3.org/2000/svg"><g><g><circle cx="100.5" cy="77.625" fill="#bcbcc1" r="9"/><circle cx="27.5" cy="77.625" fill="#bcbcc1" r="9"/><path d="m99.5 62v24a35.5 35.5 0 0 1 -71 0v-24a7.671 7.671 0 0 1 7.67-7.67h55.66a7.671 7.671 0 0 1 7.67 7.67z" fill="#eaeaf0"/><path d="m82.667 93.975c0 5.792-6.245 13.755-18.667 7.62-12.422 6.135-18.667-1.828-18.667-7.62 2.732 2.26 7.167 1.356 10.143.161 3.037-1.22 6.861.5 8.524 2.332 1.663-1.834 5.487-3.552 8.524-2.332 2.976 1.195 7.411 2.099 10.143-.161z" fill="#575f64"/><circle cx="46.25" cy="72.64" fill="#bcbcc1" r="4.303"/><path d="m71.408 70.883c0-3.874 4.146-5.05 9.26-5.05s9.26 1.176 9.26 5.05-4.146 8.98-9.26 8.98-9.26-5.106-9.26-8.98z" fill="#bcbcc1"/><path d="m121.5 29.67c0 6.166-3.554 15.542-6.794 22.808a11.969 11.969 0 0 1 -14.381 6.622c-9.472-2.871-23.435-4.77-36.325-4.77s-26.853 1.9-36.325 4.765a11.969 11.969 0 0 1 -14.381-6.617c-3.24-7.266-6.794-16.642-6.794-22.808 0 0 14.75-1.67 24.75-8.92s14.03-14.23 32.71-14.25h.08c18.68.02 22.72 7.01 32.71 14.25s24.75 8.92 24.75 8.92z" fill="#575f64"/></g><g fill="#0d0614"><path d="m121.7 27.931c-.143-.016-14.4-1.7-23.921-8.6-1.514-1.1-2.88-2.185-4.017-3.1a1.75 1.75 0 0 0 -2.2 2.723c1.171.947 2.583 2.069 4.163 3.215 8.39 6.083 19.761 8.352 23.958 9.014-.414 4.759-2.665 11.821-6.574 20.585a10.241 10.241 0 0 1 -12.275 5.654c-.5-.152-1.025-.3-1.55-.446h-.011c-9.761-2.725-23.081-4.396-35.273-4.396s-25.51 1.671-35.269 4.39h-.012c-.526.146-1.047.294-1.551.446a10.234 10.234 0 0 1 -12.275-5.654c-3.909-8.762-6.16-15.822-6.574-20.58 4.2-.663 15.567-2.932 23.958-9.015 1.995-1.446 3.733-2.862 5.414-4.231 6.631-5.4 11.869-9.671 26.347-9.686a43.042 43.042 0 0 1 13.636 1.876 1.75 1.75 0 1 0 1.111-3.318 46.6 46.6 0 0 0 -14.827-2.058c-15.646.017-21.592 4.861-28.478 10.472-1.643 1.339-3.342 2.723-5.257 4.111-9.5 6.886-23.778 8.582-23.92 8.6a1.751 1.751 0 0 0 -1.553 1.737c0 5.271 2.337 13.185 6.945 23.521a13.754 13.754 0 0 0 15.105 7.909c-.028.3-.051.6-.051.9v4.908a10.737 10.737 0 0 0 .081 21.428 37.448 37.448 0 0 0 .457 4.009 1.75 1.75 0 0 0 1.724 1.455 1.7 1.7 0 0 0 .3-.026 1.749 1.749 0 0 0 1.428-2.02 34.209 34.209 0 0 1 -.489-5.754v-24a5.951 5.951 0 0 1 .316-1.9 125.64 125.64 0 0 1 20.475-3.42l19.316 11.3a6.005 6.005 0 0 0 -.7 2.907c0 4.859 4.911 10.729 11.01 10.729a10.819 10.819 0 0 0 7.477-3.24l9.605 5.612v2.012a33.757 33.757 0 0 1 -64.8 13.258 1.75 1.75 0 1 0 -3.219 1.375 37.252 37.252 0 0 0 71.436-12.3 10.715 10.715 0 0 0 10.084-10.703 10.775 10.775 0 0 0 -10-10.72v-4.91c0-.3-.023-.6-.052-.9a13.585 13.585 0 0 0 2.552.252 13.779 13.779 0 0 0 12.555-8.162c4.608-10.336 6.945-18.25 6.945-23.521a1.749 1.749 0 0 0 -1.55-1.738zm-101.45 49.689a7.26 7.26 0 0 1 6.5-7.211v14.422a7.259 7.259 0 0 1 -6.5-7.211zm60.418.493c-4.146 0-7.51-4.375-7.51-7.229 0-2.191 2.527-3.3 7.51-3.3s7.511 1.11 7.511 3.3c0 2.854-3.366 7.229-7.511 7.229zm9.647-2.525a9.687 9.687 0 0 0 1.364-4.7c0-3.1-1.91-6.8-11.011-6.8a16.812 16.812 0 0 0 -7.622 1.411l-15.806-9.25c2.271-.11 4.534-.169 6.76-.169a138.541 138.541 0 0 1 33.434 4.02 5.951 5.951 0 0 1 .316 1.9v17.932zm17.435 2.042a7.236 7.236 0 0 1 -6.5 7.2v-14.419a7.276 7.276 0 0 1 6.5 7.219z"/><path d="m83.334 12.763c.9.546 1.824 1.167 2.819 1.9a1.75 1.75 0 1 0 2.073-2.82c-1.08-.793-2.086-1.471-3.078-2.071a1.75 1.75 0 1 0 -1.814 2.994z"/><path d="m109.226 51.785a1.75 1.75 0 0 0 1.6-1.037 111.953 111.953 0 0 0 4.65-12.007 1.75 1.75 0 0 0 -3.342-1.041 108.448 108.448 0 0 1 -4.5 11.622 1.749 1.749 0 0 0 1.6 2.463z"/><path d="m77.044 100.786c-3.11 1.932-7.352 1.668-12.269-.761a1.758 1.758 0 0 0 -1.55 0c-4.915 2.43-9.159 2.694-12.269.761a8.272 8.272 0 0 1 -3.243-3.856 11.022 11.022 0 0 0 2.51.177 1.75 1.75 0 0 0 -.129-3.5 5.213 5.213 0 0 1 -3.646-.983 1.75 1.75 0 0 0 -2.865 1.349 11.806 11.806 0 0 0 5.525 9.784c2.822 1.753 7.664 3.093 14.892-.226a19.912 19.912 0 0 0 8.3 2.037 12.3 12.3 0 0 0 6.591-1.811 11.806 11.806 0 0 0 5.525-9.784 1.75 1.75 0 0 0 -2.865-1.349c-1.949 1.613-5.607 1-8.375-.113-3.286-1.32-6.91-.045-9.177 1.625a11.1 11.1 0 0 0 -5.887-2.152 1.75 1.75 0 1 0 -.164 3.5 7.47 7.47 0 0 1 4.752 2.159 1.75 1.75 0 0 0 2.593 0c1.257-1.386 4.368-2.774 6.576-1.883a16 16 0 0 0 8.414 1.172 8.275 8.275 0 0 1 -3.239 3.854z"/><path d="m46.25 66.586a6.054 6.054 0 1 0 6.05 6.054 6.061 6.061 0 0 0 -6.05-6.054zm0 8.607a2.554 2.554 0 1 1 2.55-2.553 2.556 2.556 0 0 1 -2.55 2.553z"/><path d="m72.737 21.207a1.748 1.748 0 0 0 -2.474 0l-6.263 6.263-6.263-6.263a1.75 1.75 0 1 0 -2.474 2.475l6.262 6.262-6.262 6.263a1.75 1.75 0 0 0 2.474 2.475l6.263-6.263 6.263 6.263a1.75 1.75 0 1 0 2.474-2.475l-6.262-6.263 6.262-6.262a1.749 1.749 0 0 0 0-2.475z"/></g></g></svg>